<svg width="52" height="52" viewBox="0 0 52 52" fill="none" xmlns="http://www.w3.org/2000/svg">
<path d="M20.6428 1V8.14286L17.0714 9.92857L11.7142 4.57143L4.57137 11.7143L9.92851 17.0714L8.14279 20.6429H0.999939V31.3571H8.14279L9.92851 34.9286L4.57137 40.2857L11.7142 47.4286L17.0714 42.0714L20.6428 43.8571V51H31.3571V43.8571L34.9285 42.0714L40.2856 47.4286L47.4285 40.2857L42.0714 34.9286L43.8571 31.3571H50.9999V20.6429H43.8571L42.0714 17.0714L47.4285 11.7143L40.2856 4.57143L34.9285 9.92857L31.3571 8.14286V1H20.6428Z" stroke="#FF001E" stroke-width="2" stroke-linecap="round" stroke-linejoin="round"/>
<path d="M25.9999 33.1429C29.9448 33.1429 33.1428 29.9449 33.1428 26C33.1428 22.0551 29.9448 18.8571 25.9999 18.8571C22.055 18.8571 18.8571 22.0551 18.8571 26C18.8571 29.9449 22.055 33.1429 25.9999 33.1429Z" stroke="#FF001E" stroke-width="2" stroke-linecap="round" stroke-linejoin="round"/>
</svg>
