<svg width="280" height="170" viewBox="0 0 280 170" fill="none" xmlns="http://www.w3.org/2000/svg">
<rect width="280" height="170" rx="20" fill="#222222"/>
<path d="M29.2863 108.824H25.3503V119H24.1823V108.824H20.2463V107.8H29.2863V108.824ZM37.5776 115.144H30.5376C30.6016 116.019 30.9376 116.728 31.5456 117.272C32.1536 117.805 32.9216 118.072 33.8496 118.072C34.3722 118.072 34.8522 117.981 35.2896 117.8C35.7269 117.608 36.1056 117.331 36.4256 116.968L37.0656 117.704C36.6922 118.152 36.2229 118.493 35.6576 118.728C35.1029 118.963 34.4896 119.08 33.8176 119.08C32.9536 119.08 32.1856 118.899 31.5136 118.536C30.8522 118.163 30.3349 117.651 29.9616 117C29.5882 116.349 29.4016 115.613 29.4016 114.792C29.4016 113.971 29.5776 113.235 29.9296 112.584C30.2922 111.933 30.7829 111.427 31.4016 111.064C32.0309 110.701 32.7349 110.52 33.5136 110.52C34.2922 110.52 34.9909 110.701 35.6096 111.064C36.2282 111.427 36.7136 111.933 37.0656 112.584C37.4176 113.224 37.5936 113.96 37.5936 114.792L37.5776 115.144ZM33.5136 111.496C32.7029 111.496 32.0202 111.757 31.4656 112.28C30.9216 112.792 30.6122 113.464 30.5376 114.296H36.5056C36.4309 113.464 36.1162 112.792 35.5616 112.28C35.0176 111.757 34.3349 111.496 33.5136 111.496ZM45.1378 119L42.4658 115.48L39.7778 119H38.4978L41.8258 114.68L38.6578 110.584H39.9378L42.4658 113.88L44.9938 110.584H46.2418L43.0738 114.68L46.4338 119H45.1378ZM48.2957 110.584H49.4317V114.312H54.7277V110.584H55.8637V119H54.7277V115.288H49.4317V119H48.2957V110.584ZM59.0926 110.584H60.2286V117.272L65.8446 110.584H66.8526V119H65.7166V112.312L60.1166 119H59.0926V110.584ZM76.4602 110.584V119H75.3242V115.496C74.3535 115.923 73.3989 116.136 72.4602 116.136C71.4469 116.136 70.6575 115.907 70.0922 115.448C69.5269 114.979 69.2442 114.28 69.2442 113.352V110.584H70.3802V113.288C70.3802 113.917 70.5829 114.397 70.9882 114.728C71.3935 115.048 71.9535 115.208 72.6682 115.208C73.4575 115.208 74.3429 115 75.3242 114.584V110.584H76.4602ZM87.0463 115.144H80.0063C80.0703 116.019 80.4063 116.728 81.0143 117.272C81.6223 117.805 82.3903 118.072 83.3183 118.072C83.841 118.072 84.321 117.981 84.7583 117.8C85.1956 117.608 85.5743 117.331 85.8943 116.968L86.5343 117.704C86.161 118.152 85.6916 118.493 85.1263 118.728C84.5716 118.963 83.9583 119.08 83.2863 119.08C82.4223 119.08 81.6543 118.899 80.9823 118.536C80.321 118.163 79.8036 117.651 79.4303 117C79.057 116.349 78.8703 115.613 78.8703 114.792C78.8703 113.971 79.0463 113.235 79.3983 112.584C79.761 111.933 80.2516 111.427 80.8703 111.064C81.4996 110.701 82.2036 110.52 82.9823 110.52C83.761 110.52 84.4596 110.701 85.0783 111.064C85.697 111.427 86.1823 111.933 86.5343 112.584C86.8863 113.224 87.0623 113.96 87.0623 114.792L87.0463 115.144ZM82.9823 111.496C82.1716 111.496 81.489 111.757 80.9343 112.28C80.3903 112.792 80.081 113.464 80.0063 114.296H85.9743C85.8996 113.464 85.585 112.792 85.0303 112.28C84.4863 111.757 83.8036 111.496 82.9823 111.496ZM93.0969 119.08C92.2649 119.08 91.5183 118.899 90.8569 118.536C90.2063 118.173 89.6943 117.667 89.3209 117.016C88.9476 116.355 88.7609 115.613 88.7609 114.792C88.7609 113.971 88.9476 113.235 89.3209 112.584C89.6943 111.933 90.2063 111.427 90.8569 111.064C91.5183 110.701 92.2649 110.52 93.0969 110.52C93.8223 110.52 94.4676 110.664 95.0329 110.952C95.6089 111.229 96.0623 111.64 96.3929 112.184L95.5449 112.76C95.2676 112.344 94.9156 112.035 94.4889 111.832C94.0623 111.619 93.5983 111.512 93.0969 111.512C92.4889 111.512 91.9396 111.651 91.4489 111.928C90.9689 112.195 90.5903 112.579 90.3129 113.08C90.0463 113.581 89.9129 114.152 89.9129 114.792C89.9129 115.443 90.0463 116.019 90.3129 116.52C90.5903 117.011 90.9689 117.395 91.4489 117.672C91.9396 117.939 92.4889 118.072 93.0969 118.072C93.5983 118.072 94.0623 117.971 94.4889 117.768C94.9156 117.565 95.2676 117.256 95.5449 116.84L96.3929 117.416C96.0623 117.96 95.6089 118.376 95.0329 118.664C94.4569 118.941 93.8116 119.08 93.0969 119.08ZM101.649 115.256H99.7286V119H98.5926V110.584H99.7286V114.28H101.665L104.625 110.584H105.857L102.545 114.664L106.097 119H104.753L101.649 115.256ZM110.629 110.52C111.728 110.52 112.571 110.797 113.157 111.352C113.744 111.896 114.037 112.707 114.037 113.784V119H112.949V117.688C112.693 118.125 112.315 118.467 111.813 118.712C111.323 118.957 110.736 119.08 110.053 119.08C109.115 119.08 108.368 118.856 107.813 118.408C107.259 117.96 106.981 117.368 106.981 116.632C106.981 115.917 107.237 115.341 107.749 114.904C108.272 114.467 109.099 114.248 110.229 114.248H112.901V113.736C112.901 113.011 112.699 112.461 112.293 112.088C111.888 111.704 111.296 111.512 110.517 111.512C109.984 111.512 109.472 111.603 108.981 111.784C108.491 111.955 108.069 112.195 107.717 112.504L107.205 111.656C107.632 111.293 108.144 111.016 108.741 110.824C109.339 110.621 109.968 110.52 110.629 110.52ZM110.229 118.184C110.869 118.184 111.419 118.04 111.877 117.752C112.336 117.453 112.677 117.027 112.901 116.472V115.096H110.261C108.821 115.096 108.101 115.597 108.101 116.6C108.101 117.091 108.288 117.48 108.661 117.768C109.035 118.045 109.557 118.184 110.229 118.184ZM123.525 110.584V119H122.485V116.216H119.845H119.525L117.573 119H116.341L118.437 116.056C117.787 115.875 117.285 115.565 116.933 115.128C116.581 114.691 116.405 114.136 116.405 113.464C116.405 112.525 116.725 111.811 117.365 111.32C118.005 110.829 118.88 110.584 119.989 110.584H123.525ZM117.557 113.496C117.557 114.744 118.352 115.368 119.941 115.368H122.485V111.592H120.021C118.379 111.592 117.557 112.227 117.557 113.496ZM138.504 110.584V119H137.368V111.592H132.088V119H130.952V110.584H138.504ZM145.205 119.08C144.395 119.08 143.664 118.899 143.013 118.536C142.363 118.163 141.851 117.651 141.477 117C141.104 116.349 140.917 115.613 140.917 114.792C140.917 113.971 141.104 113.235 141.477 112.584C141.851 111.933 142.363 111.427 143.013 111.064C143.664 110.701 144.395 110.52 145.205 110.52C146.016 110.52 146.747 110.701 147.397 111.064C148.048 111.427 148.555 111.933 148.917 112.584C149.291 113.235 149.477 113.971 149.477 114.792C149.477 115.613 149.291 116.349 148.917 117C148.555 117.651 148.048 118.163 147.397 118.536C146.747 118.899 146.016 119.08 145.205 119.08ZM145.205 118.072C145.803 118.072 146.336 117.939 146.805 117.672C147.285 117.395 147.659 117.005 147.925 116.504C148.192 116.003 148.325 115.432 148.325 114.792C148.325 114.152 148.192 113.581 147.925 113.08C147.659 112.579 147.285 112.195 146.805 111.928C146.336 111.651 145.803 111.512 145.205 111.512C144.608 111.512 144.069 111.651 143.589 111.928C143.12 112.195 142.747 112.579 142.469 113.08C142.203 113.581 142.069 114.152 142.069 114.792C142.069 115.432 142.203 116.003 142.469 116.504C142.747 117.005 143.12 117.395 143.589 117.672C144.069 117.939 144.608 118.072 145.205 118.072ZM160.066 118.008V121.032H158.994V119H151.458V121.032H150.386V118.008H150.866C151.432 117.976 151.816 117.56 152.018 116.76C152.221 115.96 152.36 114.84 152.434 113.4L152.546 110.584H158.754V118.008H160.066ZM153.474 113.464C153.421 114.659 153.32 115.645 153.17 116.424C153.021 117.192 152.754 117.72 152.37 118.008H157.618V111.592H153.57L153.474 113.464ZM170.488 118.008V121.032H169.416V119H161.88V121.032H160.808V118.008H161.288C161.853 117.976 162.237 117.56 162.44 116.76C162.643 115.96 162.781 114.84 162.856 113.4L162.968 110.584H169.176V118.008H170.488ZM163.896 113.464C163.843 114.659 163.741 115.645 163.592 116.424C163.443 117.192 163.176 117.72 162.792 118.008H168.04V111.592H163.992L163.896 113.464ZM180.062 115.144H173.022C173.086 116.019 173.422 116.728 174.03 117.272C174.638 117.805 175.406 118.072 176.334 118.072C176.857 118.072 177.337 117.981 177.774 117.8C178.211 117.608 178.59 117.331 178.91 116.968L179.55 117.704C179.177 118.152 178.707 118.493 178.142 118.728C177.587 118.963 176.974 119.08 176.302 119.08C175.438 119.08 174.67 118.899 173.998 118.536C173.337 118.163 172.819 117.651 172.446 117C172.073 116.349 171.886 115.613 171.886 114.792C171.886 113.971 172.062 113.235 172.414 112.584C172.777 111.933 173.267 111.427 173.886 111.064C174.515 110.701 175.219 110.52 175.998 110.52C176.777 110.52 177.475 110.701 178.094 111.064C178.713 111.427 179.198 111.933 179.55 112.584C179.902 113.224 180.078 113.96 180.078 114.792L180.062 115.144ZM175.998 111.496C175.187 111.496 174.505 111.757 173.95 112.28C173.406 112.792 173.097 113.464 173.022 114.296H178.99C178.915 113.464 178.601 112.792 178.046 112.28C177.502 111.757 176.819 111.496 175.998 111.496ZM186.929 110.52C187.718 110.52 188.433 110.701 189.073 111.064C189.713 111.416 190.214 111.917 190.577 112.568C190.939 113.219 191.121 113.96 191.121 114.792C191.121 115.635 190.939 116.381 190.577 117.032C190.214 117.683 189.713 118.189 189.073 118.552C188.443 118.904 187.729 119.08 186.929 119.08C186.246 119.08 185.627 118.941 185.073 118.664C184.529 118.376 184.081 117.96 183.729 117.416V122.104H182.593V110.584H183.681V112.248C184.022 111.693 184.47 111.267 185.025 110.968C185.59 110.669 186.225 110.52 186.929 110.52ZM186.849 118.072C187.435 118.072 187.969 117.939 188.449 117.672C188.929 117.395 189.302 117.005 189.569 116.504C189.846 116.003 189.985 115.432 189.985 114.792C189.985 114.152 189.846 113.587 189.569 113.096C189.302 112.595 188.929 112.205 188.449 111.928C187.969 111.651 187.435 111.512 186.849 111.512C186.251 111.512 185.713 111.651 185.233 111.928C184.763 112.205 184.39 112.595 184.113 113.096C183.846 113.587 183.713 114.152 183.713 114.792C183.713 115.432 183.846 116.003 184.113 116.504C184.39 117.005 184.763 117.395 185.233 117.672C185.713 117.939 186.251 118.072 186.849 118.072ZM200.64 115.256H198.816V119H197.68V115.256H195.856L193.28 119H191.92L194.944 114.664L192.16 110.584H193.392L195.856 114.28H197.68V110.584H198.816V114.28H200.64L203.12 110.584H204.352L201.568 114.68L204.592 119H203.232L200.64 115.256ZM209.539 115.256H207.619V119H206.483V110.584H207.619V114.28H209.555L212.515 110.584H213.747L210.435 114.664L213.987 119H212.643L209.539 115.256ZM218.52 110.52C219.618 110.52 220.461 110.797 221.048 111.352C221.634 111.896 221.928 112.707 221.928 113.784V119H220.84V117.688C220.584 118.125 220.205 118.467 219.704 118.712C219.213 118.957 218.626 119.08 217.944 119.08C217.005 119.08 216.258 118.856 215.704 118.408C215.149 117.96 214.872 117.368 214.872 116.632C214.872 115.917 215.128 115.341 215.64 114.904C216.162 114.467 216.989 114.248 218.12 114.248H220.792V113.736C220.792 113.011 220.589 112.461 220.184 112.088C219.778 111.704 219.186 111.512 218.408 111.512C217.874 111.512 217.362 111.603 216.872 111.784C216.381 111.955 215.96 112.195 215.608 112.504L215.096 111.656C215.522 111.293 216.034 111.016 216.632 110.824C217.229 110.621 217.858 110.52 218.52 110.52ZM218.12 118.184C218.76 118.184 219.309 118.04 219.768 117.752C220.226 117.453 220.568 117.027 220.792 116.472V115.096H218.152C216.712 115.096 215.992 115.597 215.992 116.6C215.992 117.091 216.178 117.48 216.552 117.768C216.925 118.045 217.448 118.184 218.12 118.184ZM229.139 110.584H230.275V114.312H235.571V110.584H236.707V119H235.571V115.288H230.275V119H229.139V110.584ZM242.832 110.52C243.931 110.52 244.774 110.797 245.36 111.352C245.947 111.896 246.24 112.707 246.24 113.784V119H245.152V117.688C244.896 118.125 244.518 118.467 244.016 118.712C243.526 118.957 242.939 119.08 242.256 119.08C241.318 119.08 240.571 118.856 240.016 118.408C239.462 117.96 239.184 117.368 239.184 116.632C239.184 115.917 239.44 115.341 239.952 114.904C240.475 114.467 241.302 114.248 242.432 114.248H245.104V113.736C245.104 113.011 244.902 112.461 244.496 112.088C244.091 111.704 243.499 111.512 242.72 111.512C242.187 111.512 241.675 111.603 241.184 111.784C240.694 111.955 240.272 112.195 239.92 112.504L239.408 111.656C239.835 111.293 240.347 111.016 240.944 110.824C241.542 110.621 242.171 110.52 242.832 110.52ZM242.432 118.184C243.072 118.184 243.622 118.04 244.08 117.752C244.539 117.453 244.88 117.027 245.104 116.472V115.096H242.464C241.024 115.096 240.304 115.597 240.304 116.6C240.304 117.091 240.491 117.48 240.864 117.768C241.238 118.045 241.76 118.184 242.432 118.184ZM260.316 117.976V119H252.46V118.184L257.116 113.624C257.703 113.048 258.097 112.552 258.3 112.136C258.513 111.709 258.62 111.283 258.62 110.856C258.62 110.195 258.391 109.683 257.932 109.32C257.484 108.947 256.839 108.76 255.996 108.76C254.684 108.76 253.665 109.176 252.94 110.008L252.124 109.304C252.561 108.792 253.116 108.397 253.788 108.12C254.471 107.843 255.239 107.704 256.092 107.704C257.233 107.704 258.135 107.976 258.796 108.52C259.468 109.053 259.804 109.789 259.804 110.728C259.804 111.304 259.676 111.859 259.42 112.392C259.164 112.925 258.679 113.539 257.964 114.232L254.156 117.976H260.316ZM74.7115 132.584V141H73.6715V134.344L70.2635 139.976H69.7515L66.3435 134.328V141H65.3035V132.584H66.4555L70.0235 138.648L73.6555 132.584H74.7115ZM85.3041 137.144H78.2641C78.3281 138.019 78.6641 138.728 79.2721 139.272C79.8801 139.805 80.6481 140.072 81.5761 140.072C82.0988 140.072 82.5788 139.981 83.0161 139.8C83.4535 139.608 83.8321 139.331 84.1521 138.968L84.7921 139.704C84.4188 140.152 83.9495 140.493 83.3841 140.728C82.8295 140.963 82.2161 141.08 81.5441 141.08C80.6801 141.08 79.9121 140.899 79.2401 140.536C78.5788 140.163 78.0615 139.651 77.6881 139C77.3148 138.349 77.1281 137.613 77.1281 136.792C77.1281 135.971 77.3041 135.235 77.6561 134.584C78.0188 133.933 78.5095 133.427 79.1281 133.064C79.7575 132.701 80.4615 132.52 81.2401 132.52C82.0188 132.52 82.7175 132.701 83.3361 133.064C83.9548 133.427 84.4401 133.933 84.7921 134.584C85.1441 135.224 85.3201 135.96 85.3201 136.792L85.3041 137.144ZM81.2401 133.496C80.4295 133.496 79.7468 133.757 79.1921 134.28C78.6481 134.792 78.3388 135.464 78.2641 136.296H84.2321C84.1575 135.464 83.8428 134.792 83.2881 134.28C82.7441 133.757 82.0615 133.496 81.2401 133.496ZM91.3548 141.08C90.5228 141.08 89.7761 140.899 89.1148 140.536C88.4641 140.173 87.9521 139.667 87.5788 139.016C87.2054 138.355 87.0188 137.613 87.0188 136.792C87.0188 135.971 87.2054 135.235 87.5788 134.584C87.9521 133.933 88.4641 133.427 89.1148 133.064C89.7761 132.701 90.5228 132.52 91.3548 132.52C92.0801 132.52 92.7254 132.664 93.2908 132.952C93.8668 133.229 94.3201 133.64 94.6508 134.184L93.8028 134.76C93.5254 134.344 93.1734 134.035 92.7468 133.832C92.3201 133.619 91.8561 133.512 91.3548 133.512C90.7468 133.512 90.1974 133.651 89.7068 133.928C89.2268 134.195 88.8481 134.579 88.5707 135.08C88.3041 135.581 88.1708 136.152 88.1708 136.792C88.1708 137.443 88.3041 138.019 88.5707 138.52C88.8481 139.011 89.2268 139.395 89.7068 139.672C90.1974 139.939 90.7468 140.072 91.3548 140.072C91.8561 140.072 92.3201 139.971 92.7468 139.768C93.1734 139.565 93.5254 139.256 93.8028 138.84L94.6508 139.416C94.3201 139.96 93.8668 140.376 93.2908 140.664C92.7148 140.941 92.0694 141.08 91.3548 141.08ZM103.033 132.584V141H101.993V138.216H99.3531H99.0331L97.0811 141H95.8491L97.9451 138.056C97.2945 137.875 96.7931 137.565 96.4411 137.128C96.0891 136.691 95.9131 136.136 95.9131 135.464C95.9131 134.525 96.2331 133.811 96.8731 133.32C97.5131 132.829 98.3878 132.584 99.4971 132.584H103.033ZM97.0651 135.496C97.0651 136.744 97.8598 137.368 99.4491 137.368H101.993V133.592H99.5291C97.8865 133.592 97.0651 134.227 97.0651 135.496ZM115.04 140.008V143.112H113.968V141H106.272V132.584H107.408V140.008H112.544V132.584H113.68V140.008H115.04ZM120.106 132.52C121.204 132.52 122.047 132.797 122.634 133.352C123.22 133.896 123.514 134.707 123.514 135.784V141H122.426V139.688C122.17 140.125 121.791 140.467 121.29 140.712C120.799 140.957 120.212 141.08 119.53 141.08C118.591 141.08 117.844 140.856 117.29 140.408C116.735 139.96 116.458 139.368 116.458 138.632C116.458 137.917 116.714 137.341 117.226 136.904C117.748 136.467 118.575 136.248 119.706 136.248H122.378V135.736C122.378 135.011 122.175 134.461 121.77 134.088C121.364 133.704 120.772 133.512 119.994 133.512C119.46 133.512 118.948 133.603 118.458 133.784C117.967 133.955 117.546 134.195 117.194 134.504L116.682 133.656C117.108 133.293 117.62 133.016 118.218 132.824C118.815 132.621 119.444 132.52 120.106 132.52ZM119.706 140.184C120.346 140.184 120.895 140.04 121.354 139.752C121.812 139.453 122.154 139.027 122.378 138.472V137.096H119.738C118.298 137.096 117.578 137.597 117.578 138.6C117.578 139.091 117.764 139.48 118.138 139.768C118.511 140.045 119.034 140.184 119.706 140.184ZM134.805 132.792C135.584 132.792 136.277 132.968 136.885 133.32C137.504 133.661 137.984 134.147 138.325 134.776C138.667 135.395 138.837 136.104 138.837 136.904C138.837 137.725 138.656 138.456 138.293 139.096C137.941 139.725 137.445 140.216 136.805 140.568C136.165 140.92 135.429 141.096 134.597 141.096C133.2 141.096 132.117 140.605 131.349 139.624C130.581 138.643 130.197 137.288 130.197 135.56C130.197 133.757 130.539 132.376 131.221 131.416C131.915 130.456 132.992 129.805 134.453 129.464L138.229 128.6L138.421 129.64L134.869 130.456C133.664 130.723 132.779 131.197 132.213 131.88C131.648 132.552 131.339 133.549 131.285 134.872C131.627 134.221 132.101 133.715 132.709 133.352C133.317 132.979 134.016 132.792 134.805 132.792ZM134.629 140.152C135.216 140.152 135.739 140.019 136.197 139.752C136.667 139.475 137.029 139.091 137.285 138.6C137.552 138.109 137.685 137.555 137.685 136.936C137.685 136.317 137.557 135.773 137.301 135.304C137.045 134.835 136.683 134.472 136.213 134.216C135.755 133.949 135.227 133.816 134.629 133.816C134.032 133.816 133.499 133.949 133.029 134.216C132.571 134.472 132.208 134.835 131.941 135.304C131.685 135.773 131.557 136.317 131.557 136.936C131.557 137.555 131.685 138.109 131.941 138.6C132.208 139.091 132.576 139.475 133.045 139.752C133.515 140.019 134.043 140.152 134.629 140.152ZM148.632 137.144H141.592C141.656 138.019 141.992 138.728 142.6 139.272C143.208 139.805 143.976 140.072 144.904 140.072C145.427 140.072 145.907 139.981 146.344 139.8C146.782 139.608 147.16 139.331 147.48 138.968L148.12 139.704C147.747 140.152 147.278 140.493 146.712 140.728C146.158 140.963 145.544 141.08 144.872 141.08C144.008 141.08 143.24 140.899 142.568 140.536C141.907 140.163 141.39 139.651 141.016 139C140.643 138.349 140.456 137.613 140.456 136.792C140.456 135.971 140.632 135.235 140.984 134.584C141.347 133.933 141.838 133.427 142.456 133.064C143.086 132.701 143.79 132.52 144.568 132.52C145.347 132.52 146.046 132.701 146.664 133.064C147.283 133.427 147.768 133.933 148.12 134.584C148.472 135.224 148.648 135.96 148.648 136.792L148.632 137.144ZM144.568 133.496C143.758 133.496 143.075 133.757 142.52 134.28C141.976 134.792 141.667 135.464 141.592 136.296H147.56C147.486 135.464 147.171 134.792 146.616 134.28C146.072 133.757 145.39 133.496 144.568 133.496ZM154.683 141.08C153.851 141.08 153.104 140.899 152.443 140.536C151.792 140.173 151.28 139.667 150.907 139.016C150.534 138.355 150.347 137.613 150.347 136.792C150.347 135.971 150.534 135.235 150.907 134.584C151.28 133.933 151.792 133.427 152.443 133.064C153.104 132.701 153.851 132.52 154.683 132.52C155.408 132.52 156.054 132.664 156.619 132.952C157.195 133.229 157.648 133.64 157.979 134.184L157.131 134.76C156.854 134.344 156.502 134.035 156.075 133.832C155.648 133.619 155.184 133.512 154.683 133.512C154.075 133.512 153.526 133.651 153.035 133.928C152.555 134.195 152.176 134.579 151.899 135.08C151.632 135.581 151.499 136.152 151.499 136.792C151.499 137.443 151.632 138.019 151.899 138.52C152.176 139.011 152.555 139.395 153.035 139.672C153.526 139.939 154.075 140.072 154.683 140.072C155.184 140.072 155.648 139.971 156.075 139.768C156.502 139.565 156.854 139.256 157.131 138.84L157.979 139.416C157.648 139.96 157.195 140.376 156.619 140.664C156.043 140.941 155.398 141.08 154.683 141.08ZM167.731 132.584V141H166.595V133.592H161.315V141H160.179V132.584H167.731ZM177.84 132.584V141H176.704V133.592H172.672L172.56 135.672C172.474 137.421 172.272 138.765 171.952 139.704C171.632 140.643 171.061 141.112 170.24 141.112C170.016 141.112 169.744 141.069 169.424 140.984L169.504 140.008C169.696 140.051 169.829 140.072 169.904 140.072C170.341 140.072 170.672 139.869 170.896 139.464C171.12 139.059 171.269 138.557 171.344 137.96C171.418 137.363 171.482 136.573 171.536 135.592L171.68 132.584H177.84ZM183.965 132.52C185.064 132.52 185.906 132.797 186.493 133.352C187.08 133.896 187.373 134.707 187.373 135.784V141H186.285V139.688C186.029 140.125 185.65 140.467 185.149 140.712C184.658 140.957 184.072 141.08 183.389 141.08C182.45 141.08 181.704 140.856 181.149 140.408C180.594 139.96 180.317 139.368 180.317 138.632C180.317 137.917 180.573 137.341 181.085 136.904C181.608 136.467 182.434 136.248 183.565 136.248H186.237V135.736C186.237 135.011 186.034 134.461 185.629 134.088C185.224 133.704 184.632 133.512 183.853 133.512C183.32 133.512 182.808 133.603 182.317 133.784C181.826 133.955 181.405 134.195 181.053 134.504L180.541 133.656C180.968 133.293 181.48 133.016 182.077 132.824C182.674 132.621 183.304 132.52 183.965 132.52ZM183.565 140.184C184.205 140.184 184.754 140.04 185.213 139.752C185.672 139.453 186.013 139.027 186.237 138.472V137.096H183.597C182.157 137.096 181.437 137.597 181.437 138.6C181.437 139.091 181.624 139.48 181.997 139.768C182.37 140.045 182.893 140.184 183.565 140.184ZM196.317 133.592H193.133V141H191.997V133.592H188.813V132.584H196.317V133.592ZM197.96 132.584H199.096V136.312H204.392V132.584H205.528V141H204.392V137.288H199.096V141H197.96V132.584ZM212.229 141.08C211.418 141.08 210.687 140.899 210.037 140.536C209.386 140.163 208.874 139.651 208.501 139C208.127 138.349 207.941 137.613 207.941 136.792C207.941 135.971 208.127 135.235 208.501 134.584C208.874 133.933 209.386 133.427 210.037 133.064C210.687 132.701 211.418 132.52 212.229 132.52C213.039 132.52 213.77 132.701 214.421 133.064C215.071 133.427 215.578 133.933 215.941 134.584C216.314 135.235 216.501 135.971 216.501 136.792C216.501 137.613 216.314 138.349 215.941 139C215.578 139.651 215.071 140.163 214.421 140.536C213.77 140.899 213.039 141.08 212.229 141.08ZM212.229 140.072C212.826 140.072 213.359 139.939 213.829 139.672C214.309 139.395 214.682 139.005 214.949 138.504C215.215 138.003 215.349 137.432 215.349 136.792C215.349 136.152 215.215 135.581 214.949 135.08C214.682 134.579 214.309 134.195 213.829 133.928C213.359 133.651 212.826 133.512 212.229 133.512C211.631 133.512 211.093 133.651 210.613 133.928C210.143 134.195 209.77 134.579 209.493 135.08C209.226 135.581 209.093 136.152 209.093 136.792C209.093 137.432 209.226 138.003 209.493 138.504C209.77 139.005 210.143 139.395 210.613 139.672C211.093 139.939 211.631 140.072 212.229 140.072Z" fill="white"/>
<path d="M158.75 55.25C158.75 56.3551 158.311 57.4149 157.53 58.1963C156.748 58.9777 155.688 59.4167 154.583 59.4167H129.583L121.25 67.75V34.4167C121.25 33.3116 121.689 32.2518 122.47 31.4704C123.252 30.689 124.312 30.25 125.417 30.25H154.583C155.688 30.25 156.748 30.689 157.53 31.4704C158.311 32.2518 158.75 33.3116 158.75 34.4167V55.25Z" stroke="#FF001E" stroke-width="2" stroke-linecap="round" stroke-linejoin="round"/>
</svg>
